# xmcd
#
# Track frame offsets:
#	150
#	16440
#	35697
#	56406
#	73880
#	92925
#	111915
#	132858
#	148813
#	166837
#	183166
#
# Disc length: 2640 seconds
#
# Revision: 11
# Processed by: cddbd v1.5.2PL0 Copyright (c) Steve Scherf et al.
# Submitted via: EasyCDDAExtractor 15.3.0.1
#
DISCID=9d0a4e0b
DTITLE=India - Soy Diferente
DYEAR=2006
DGENRE=Latin
TTITLE0=Soy Diferente (Salsaton)
TTITLE1=Solamente Una Noche (Salsa)
TTITLE2=Un Amor Obsesivo
TTITLE3=Cuando Hieres A Una Mujer
TTITLE4=No Es Lo Mismo
TTITLE5=Lagrimas
TTITLE6=Tengo Que Dejarte Ir
TTITLE7=Soy Diferente (Reggaeton)
TTITLE8=Madre E Hija Aka Madre
TTITLE9=Solamente Una Noche (Reggaeton)
TTITLE10=Bugarron
EXTD=
EXTT0=
EXTT1=
EXTT2=
EXTT3=
EXTT4=
EXTT5=
EXTT6=
EXTT7=
EXTT8=
EXTT9=
EXTT10=
PLAYORDER=
